<?xml version="1.0" standalone="no"?><!DOCTYPE svg PUBLIC "-//W3C//DTD SVG 1.1//EN" "http://www.w3.org/Graphics/SVG/1.1/DTD/svg11.dtd"><svg t="1731482854087" class="icon" viewBox="0 0 1027 1024" version="1.1" xmlns="http://www.w3.org/2000/svg" p-id="3190" width="64.1875" height="64" xmlns:xlink="http://www.w3.org/1999/xlink"><path d="M949.5194 349.777355l-64.954013-106.091553a33.884343 33.884343 0 0 0-26.198118-14.72291H151.559361a29.662332 29.662332 0 0 0-24.574267 15.588963l-49.256793 105.2255" fill="#B9E3ED" p-id="3191"></path><path d="M77.620044 376.625013a24.790781 24.790781 0 0 1-10.825668-2.489904A25.873348 25.873348 0 0 1 54.128343 339.709483l49.256793-105.225499a61.706311 61.706311 0 0 1 51.854953-30.528386h699.338196a68.201713 68.201713 0 0 1 52.504493 27.172428l64.954012 106.091553a25.873348 25.873348 0 1 1-44.168728 26.955915l-64.954012-106.091553a12.882546 12.882546 0 0 0-4.546781-2.381647H151.559361s-1.082567 0.866053-1.515593 1.407337l-48.932023 104.575959a25.873348 25.873348 0 0 1-23.491701 14.939423z" fill="#324654" p-id="3192"></path><path d="M500.687176 289.370124V87.90443" fill="#B9E3ED" p-id="3193"></path><path d="M500.687176 315.243472a25.873348 25.873348 0 0 1-25.873348-25.873348V87.90443a25.873348 25.873348 0 1 1 51.746696 0v201.465694a25.873348 25.873348 0 0 1-25.873348 25.873348z" fill="#324654" p-id="3194"></path><path d="M500.687176 25.873348h44.060472c21.651337 0 51.530183 32.477006 95.590654 32.477006s58.891638-11.799979 58.891638-11.799979v109.014484s-14.722909 13.856856-58.891638 13.856856-88.2292-41.570568-102.952109-41.570568h-36.699017z" fill="#B9E3ED" p-id="3195"></path><path d="M640.338302 194.862036c-35.075167 0-66.686119-18.836663-89.636536-32.477006-5.412834-3.139444-12.449519-7.361455-15.913733-8.985305h-34.100857a25.873348 25.873348 0 0 1-25.873348-25.873348V25.873348A25.873348 25.873348 0 0 1 500.687176 0h44.060472a94.075061 94.075061 0 0 1 44.060471 15.264193A109.880537 109.880537 0 0 0 640.338302 32.477006a101.869542 101.869542 0 0 0 43.302675-6.711915A23.599958 23.599958 0 0 1 710.163865 21.651337 26.414632 26.414632 0 0 1 725.319801 46.658632v108.906227a25.765091 25.765091 0 0 1-8.119251 18.836663c-5.412834 4.871551-26.306375 20.460514-76.862248 20.460514zM526.560524 101.977799h10.825669c12.557776 0 24.032984 6.820171 39.838461 16.238503 17.862353 10.825669 42.328365 25.332065 63.113648 25.332065a114.102548 114.102548 0 0 0 33.01829-4.005498V82.058569a219.219791 219.219791 0 0 1-33.01829 2.27339 156.539169 156.539169 0 0 1-75.779681-23.491701 95.915424 95.915424 0 0 0-19.59446-9.093562h-18.403637z" fill="#324654" p-id="3196"></path><path d="M77.728301 901.236917V349.777355h871.791099v551.459562M949.5194 349.777355v551.459562" fill="#B9E3ED" p-id="3197"></path><path d="M949.5194 927.110265a25.873348 25.873348 0 0 1-25.873349-25.873348V349.777355a25.873348 25.873348 0 0 1 51.746697 0v551.459562a25.873348 25.873348 0 0 1-25.873348 25.873348z" fill="#324654" p-id="3198"></path><path d="M77.728301 901.236917V349.777355" fill="#B9E3ED" p-id="3199"></path><path d="M77.728301 927.110265a25.981605 25.981605 0 0 1-25.981605-25.873348V349.777355a25.981605 25.981605 0 0 1 51.854953 0v551.459562a25.873348 25.873348 0 0 1-25.873348 25.873348z" fill="#324654" p-id="3200"></path><path d="M949.5194 894.525003h51.854952v103.601649H25.873348v-103.601649h51.854953" fill="#FFFFFF" p-id="3201"></path><path d="M1001.374352 1024H25.873348A25.873348 25.873348 0 0 1 0 998.126652v-103.601649a25.873348 25.873348 0 0 1 25.873348-25.873348h51.854953a25.873348 25.873348 0 1 1 0 51.746696h-25.981605v51.854953H975.392748V920.181837h-25.873348a25.873348 25.873348 0 1 1 0-51.746696h51.854952a25.873348 25.873348 0 0 1 25.873349 25.873348v103.818163a25.873348 25.873348 0 0 1-25.873349 25.873348z" fill="#324654" p-id="3202"></path><path d="M958.179934 920.181837H77.728301a17.32107 17.32107 0 1 1 0-34.533883h880.451633a17.32107 17.32107 0 0 1 0 34.533883z" fill="#324654" p-id="3203"></path><path d="M612.841104 903.185538V726.185855a99.271382 99.271382 0 0 0-99.271382-99.271382 99.379638 99.379638 0 0 0-99.271382 99.271382v176.999683z" fill="#FFFFFF" p-id="3204"></path><path d="M612.841104 920.181837H414.29834a17.212813 17.212813 0 0 1-17.212813-17.212813V726.185855a116.592452 116.592452 0 0 1 233.076647 0v176.999683a17.32107 17.32107 0 0 1-17.32107 16.996299z m-181.221694-34.317369H595.411777V726.185855a82.058569 82.058569 0 0 0-164.00888 0z" fill="#324654" p-id="3205"></path><path d="M181.221694 445.692779H319.357226v138.135533H181.221694z" fill="#FFFFFF" p-id="3206"></path><path d="M319.357226 601.041125H181.221694a17.212813 17.212813 0 0 1-17.212814-17.212813V445.692779a17.32107 17.32107 0 0 1 17.212814-17.32107H319.357226a17.32107 17.32107 0 0 1 17.32107 17.32107v138.135533a17.32107 17.32107 0 0 1-17.32107 17.212813z m-120.814462-34.533883h103.601649v-103.601649h-103.601649z" fill="#324654" p-id="3207"></path><path d="M181.221694 670.108891H319.357226v138.135532H181.221694z" fill="#FFFFFF" p-id="3208"></path><path d="M319.357226 825.457236H181.221694a17.212813 17.212813 0 0 1-17.212814-17.212813V670.108891a17.212813 17.212813 0 0 1 17.212814-17.212813H319.357226a17.32107 17.32107 0 0 1 17.32107 17.212813v138.135532a17.32107 17.32107 0 0 1-17.32107 17.212813z m-120.814462-34.533883h103.601649V687.429961h-103.601649z" fill="#324654" p-id="3209"></path><path d="M707.782218 445.692779h138.135532v138.135533H707.782218z" fill="#FFFFFF" p-id="3210"></path><path d="M845.91775 601.041125H707.782218a17.212813 17.212813 0 0 1-17.212813-17.212813V445.692779a17.32107 17.32107 0 0 1 17.212813-17.32107h138.135532a17.32107 17.32107 0 0 1 17.32107 17.32107v138.135533a17.32107 17.32107 0 0 1-17.32107 17.212813zM725.319801 566.507242h103.601649v-103.601649H725.319801z" fill="#324654" p-id="3211"></path><path d="M707.782218 670.108891h138.135532v138.135532H707.782218z" fill="#FFFFFF" p-id="3212"></path><path d="M845.91775 825.457236H707.782218a17.212813 17.212813 0 0 1-17.212813-17.212813V670.108891a17.212813 17.212813 0 0 1 17.212813-17.212813h138.135532a17.32107 17.32107 0 0 1 17.32107 17.212813v138.135532a17.32107 17.32107 0 0 1-17.32107 17.212813zM725.319801 790.923353h103.601649V687.429961H725.319801z" fill="#324654" p-id="3213"></path><path d="M513.569722 493.109208m-82.058569 0a82.058569 82.058569 0 1 0 164.117138 0 82.058569 82.058569 0 1 0-164.117138 0Z" fill="#FFFFFF" p-id="3214"></path><path d="M513.569722 592.38059a99.271382 99.271382 0 1 1 99.271382-99.271382 99.379638 99.379638 0 0 1-99.271382 99.271382z m0-164.008881a64.954012 64.954012 0 1 0 64.954012 64.954013 64.954012 64.954012 0 0 0-64.954012-64.954013z" fill="#324654" p-id="3215"></path><path d="M509.347711 462.905593v34.533883h34.425627" fill="#FFFFFF" p-id="3216"></path><path d="M543.773338 506.100011h-34.425627a8.660535 8.660535 0 0 1-8.660535-8.660535v-34.533883a8.660535 8.660535 0 0 1 17.212813 0v25.981604h25.873349A8.552278 8.552278 0 0 1 552.109102 497.980759a8.660535 8.660535 0 0 1-8.335764 8.119252zM932.306586 375.650703H77.728301a17.32107 17.32107 0 1 1 0-34.533883h854.578285a17.32107 17.32107 0 0 1 0 34.533883z" fill="#324654" p-id="3217"></path></svg>